<svg data-v-0dd9719b="" version="1.0" xmlns="http://www.w3.org/2000/svg" xmlns:xlink="http://www.w3.org/1999/xlink" width="100%" height="100%" viewBox="0 0 340.000000 250.000000" preserveAspectRatio="xMidYMid meet" color-interpolation-filters="sRGB" style="margin: auto;">
  <!-- Removed white background rect -->
  <rect data-v-0dd9719b="" x="0" y="0" width="100%" height="100%" fill="url(#watermark)" fill-opacity="1" class="watermarklayer"></rect>
  <g data-v-0dd9719b="" fill="#1684ac" class="icon-text-wrapper icon-svg-group iconsvg" transform="translate(46.149993896484375,95.27083206176758)">
    <g class="iconsvg-imagesvg" transform="translate(0,0)">
      <g>
        <rect fill="#1684ac" fill-opacity="0" stroke-width="2" x="0" y="0" width="60" height="59.45833457204864" class="image-rect"></rect>
        <svg filter="url(#colors5528829298)" x="0" y="0" width="60" height="59.45833457204864" filtersec="colorsf205391461" class="image-svg-svg primary" style="overflow: visible;">
          <svg xmlns="http://www.w3.org/2000/svg" viewBox="0.002930724062025547 -0.028841903433203697 75.84599304199219 75.16104125976562">
            <title>资源 7</title>
            <g id="图层_2" data-name="图层 2">
              <g id="Layer_1" data-name="Layer 1">
                <path d="M.84,38.43v0h0A9.26,9.26,0,0,0,2.71,48.82L26,72.07a9.24,9.24,0,0,0,4.14,2.39l1.35.26a10.14,10.14,0,0,0,1.23.07,9.32,9.32,0,0,0,6.48-2.72q7.34-7.35,14.66-14.74L66.33,44.88l0,0A2.37,2.37,0,0,0,67,43.2a1.51,1.51,0,0,0,0-.3,1.69,1.69,0,0,0-.12-.53,2.17,2.17,0,0,0-.64-1l-.14-.14L63.66,39,34.92,67.83a3.37,3.37,0,0,1-4.73,0L.84,38.43ZM39.38,74.29a9.25,9.25,0,0,0,10.39-1.86C54.86,67.33,59.89,62.22,65,57.12h-.08l7.54-7.46a9.35,9.35,0,0,0,2.4-4.15,11.66,11.66,0,0,0,.29-1.67v-1.6a9.27,9.27,0,0,0-2.69-5.78C64.93,29,57.5,21.48,50,14a9.22,9.22,0,0,0-4.14-2.4l-1-.22a9.3,9.3,0,0,0-8,2.62c-1.49,1.49-5.74,5.75-9.23,9.3a12.58,12.58,0,0,0-2,2.29,10.14,10.14,0,0,0-.37,10.55,10.37,10.37,0,0,0,6.28,4.93c4.65,1.29,8.62-1.78,11.37-1.16a4.3,4.3,0,0,1,3.29,5.43A3.65,3.65,0,0,1,45,47.14c-2.77,3-8.15,7.88-10.07,9.71a3.37,3.37,0,0,1-4.73,0L15,41.72,7.81,34.54a3.37,3.37,0,0,1,0-4.73L17.94,19.63q5-4.9,9.89-9.85c3-3,6-6,9-8.95A9.23,9.23,0,0,0,26.4,2.69C21.3,7.78,16.27,12.9,11.17,18h0L3.58,25.57a9.35,9.35,0,0,0-2.4,4.15l-.22,1a9.35,9.35,0,0,0,2.62,8L26,61.08a9.25,9.25,0,0,0,4.15,2.4l1.14.33a9.2,9.2,0,0,0,7.92-2.73L49.4,51c.11-.11.21-.23.31-.35a9.84,9.84,0,0,0,2.2-4,10.11,10.11,0,0,0-7.1-12.49,10.46,10.46,0,0,0-2.45-.37c-2.44-.08-7.36,2.12-9.44,1.38a4.55,4.55,0,0,1-3-3.93A3.56,3.56,0,0,1,31.23,28l10-9.92a3.3,3.3,0,0,1,4.59.14q10.88,10.83,21.7,21.72a9.21,9.21,0,0,1,1.13,1.33A3.35,3.35,0,0,1,68.48,45a7.42,7.42,0,0,1-.77.9L58.08,55.6l-1.51,1.52h0L39.38,74.29ZM64.33,25.88,75,36.69v0A9.28,9.28,0,0,0,73.18,26.3L49.93,3.05A9.27,9.27,0,0,0,45.79.65L44.43.39A10,10,0,0,0,43.2.33a9.32,9.32,0,0,0-6.47,2.72Q29.38,10.4,22.07,17.78L9.56,30.24a.08.08,0,0,0,0,0,2.35,2.35,0,0,0-.63,1.64c0,.1,0,.2,0,.3a1.76,1.76,0,0,0,.12.53,2.31,2.31,0,0,0,.65,1c.79.83,1.71,1.65,2.54,2.46L41,7.29a3.37,3.37,0,0,1,4.73,0c6.22,6.19,12.46,12.36,18.64,18.59Z" fill="#f43a67"></path>
              </g>
            </g>
          </svg>
        </svg>
        <defs>
          <filter id="colors5528829298">
            <feColorMatrix type="matrix" values="0 0 0 0 0.19921875  0 0 0 0 0.19921875  0 0 0 0 0.19921875  0 0 0 1 0" class="icon-fecolormatrix"></feColorMatrix>
          </filter>
          <filter id="colorsf205391461">
            <feColorMatrix type="matrix" values="0 0 0 0 0.99609375  0 0 0 0 0.99609375  0 0 0 0 0.99609375  0 0 0 1 0" class="icon-fecolormatrix"></feColorMatrix>
          </filter>
          <filter id="colorsb4290113829">
            <feColorMatrix type="matrix" values="0 0 0 0 0  0 0 0 0 0  0 0 0 0 0  0 0 0 1 0" class="icon-fecolormatrix"></feColorMatrix>
          </filter>
        </defs>
      </g>
    </g>
    <g transform="translate(67,15.004166603088379)">
      <g data-gra="path-name" fill-rule="" class="tp-name iconsvg-namesvg">
        <g transform="scale(1)">
          <g>
            <path d="M15.94-4.5C19.22-5.86..." transform="translate(0.3500000238418579, 25.09000015258789)"></path>
          </g>
        </g>
      </g>
    </g>
  </g>
  <defs v-gra="od"></defs>
</svg>
